# xmcd
#
# Track frame offsets:
#	150
#	22405
#	43753
#	68255
#	91835
#	122690
#	146368
#	173190
#	194075
#	210675
#	234845
#	257115
#
# Disc length: 3733 seconds
#
# Revision: 0
# Processed by: cddbd v1.5.2PL0 Copyright (c) Steve Scherf et al.
# Submitted via: audiograbber 1.83.01
#
DISCID=a70e930c
DTITLE=Suneohair - Kanashimi
DYEAR=2005
DGENRE=JRock
TTITLE0=no trick
TTITLE1=Waltz
TTITLE2=Kanashimi Rock Festival (album version)
TTITLE3=Future
TTITLE4=Sora mo Isogashii
TTITLE5=Landmark
TTITLE6=peaky
TTITLE7=moon face
TTITLE8=Merry Christmas to me
TTITLE9=happy end (feat. azumi)
TTITLE10=Coupe
TTITLE11=NO.1
EXTD=
EXTT0=
EXTT1=
EXTT2=
EXTT3=
EXTT4=
EXTT5=
EXTT6=
EXTT7=
EXTT8=
EXTT9=
EXTT10=
EXTT11=
PLAYORDER=
